<svg xmlns="http://www.w3.org/2000/svg" viewBox="0 0 824.71 186.92"><defs><style>.cls-1{fill:#1d1d1d;}.cls-2{fill:#0051ff;}</style></defs><g id="Capa_2" data-name="Capa 2"><g id="Layer_1" data-name="Layer 1"><path class="cls-1" d="M290.08,119.31q0,3.09-.33,6.41t-.77,6.85H186.9a44.36,44.36,0,0,0,5,10.49,35,35,0,0,0,7.85,8.62,37.11,37.11,0,0,0,10.49,5.74,38,38,0,0,0,12.93,2.1,52.33,52.33,0,0,0,17.23-3,42.17,42.17,0,0,0,14.36-8.07l20.11,20.11q-13.26,9.94-26,14A87.29,87.29,0,0,1,222,186.7,68.76,68.76,0,0,1,173.54,167a67,67,0,0,1-14.48-21.32,67.31,67.31,0,0,1,0-52.36A66.15,66.15,0,0,1,173.65,72,70.13,70.13,0,0,1,195.3,57.67a66.49,66.49,0,0,1,26.51-5.31,68.8,68.8,0,0,1,25.85,5,70.49,70.49,0,0,1,21.88,13.81,64.58,64.58,0,0,1,20.54,48.17Zm-33.36-12.37a38.33,38.33,0,0,0-13.37-19.56A34.74,34.74,0,0,0,221.59,80a34,34,0,0,0-21.43,7.4,38.57,38.57,0,0,0-13.26,19.56Z"/><rect class="cls-1" x="307.52" width="32.48" height="183.38"/><path class="cls-1" d="M577.69,119.53a66.21,66.21,0,0,1-5.3,26.62,64.65,64.65,0,0,1-14.58,21.21,69.65,69.65,0,0,1-48.39,19.34,68.57,68.57,0,0,1-48.16-19.45,66.17,66.17,0,0,1-19.89-47.72,63.9,63.9,0,0,1,5.42-26.18,68.67,68.67,0,0,1,14.69-21.43,68,68,0,0,1,47.94-19.56A69.65,69.65,0,0,1,557.81,71.7,64.39,64.39,0,0,1,572.39,93,66.52,66.52,0,0,1,577.69,119.53Zm-31.81,0A40.17,40.17,0,0,0,543,104.29a39.74,39.74,0,0,0-7.82-12.38,36,36,0,0,0-11.56-8.28,34.74,34.74,0,0,0-28.2,0,36,36,0,0,0-11.56,8.28,40.78,40.78,0,0,0,0,55.24,35.82,35.82,0,0,0,11.56,8.28,34.74,34.74,0,0,0,28.2,0,35.82,35.82,0,0,0,11.56-8.28A39.81,39.81,0,0,0,543,134.78,40.26,40.26,0,0,0,545.88,119.53Z"/><polygon class="cls-1" points="136.32 119.53 136.32 0 104.06 0 104.06 65.35 136.32 119.53"/><path class="cls-1" d="M136.32,119.53a66.38,66.38,0,0,1-5.3,26.62,65,65,0,0,1-14.58,21.21A69.4,69.4,0,0,1,94.67,181.5a68.66,68.66,0,0,1-26.62,5.2,67.79,67.79,0,0,1-26.51-5.2,68.6,68.6,0,0,1-21.66-14.25A66.11,66.11,0,0,1,0,119.53,64.06,64.06,0,0,1,5.41,93.35a68.86,68.86,0,0,1,14.7-21.43A68,68,0,0,1,68.05,52.36a68.66,68.66,0,0,1,26.62,5.2A69.4,69.4,0,0,1,116.44,71.7,64.69,64.69,0,0,1,131,93,66.69,66.69,0,0,1,136.32,119.53Zm-31.82,0A40.13,40.13,0,0,0,93.82,91.91a36,36,0,0,0-11.56-8.28,34.74,34.74,0,0,0-28.2,0A36,36,0,0,0,42.5,91.91a39.74,39.74,0,0,0-7.82,12.38,40.77,40.77,0,0,0,7.82,42.86,35.82,35.82,0,0,0,11.56,8.28,34.74,34.74,0,0,0,28.2,0,35.82,35.82,0,0,0,11.56-8.28,40.08,40.08,0,0,0,10.68-27.62Z"/><path class="cls-1" d="M686.58,147.59a32.29,32.29,0,0,1-4.43,16.9,40,40,0,0,1-11.52,12.37,53,53,0,0,1-15.94,7.52,63.41,63.41,0,0,1-17.49,2.54,66,66,0,0,1-26.91-5.42,55.93,55.93,0,0,1-21.59-17.34l19.22-19.44a43.11,43.11,0,0,0,13.26,11.38,33.27,33.27,0,0,0,16.13,4.08,25.47,25.47,0,0,0,12.48-2.76,8.91,8.91,0,0,0,5-8.28q0-5.74-7.07-9.62t-19.88-7.62a94.44,94.44,0,0,1-14.58-5.63,53.26,53.26,0,0,1-12.6-8.4,39.75,39.75,0,0,1-8.84-11.38,31.86,31.86,0,0,1-3.31-14.8A32.5,32.5,0,0,1,592.8,75a39.41,39.41,0,0,1,11.29-12.37A53.37,53.37,0,0,1,619.93,55a62.46,62.46,0,0,1,17.94-2.65q29.22,0,47.82,22.1l-19,19.22A43.9,43.9,0,0,0,654.1,82.85a31,31,0,0,0-15.47-4,27.39,27.39,0,0,0-12,3,13.36,13.36,0,0,0-4.53,3.76,8.33,8.33,0,0,0-1.76,5.19q0,5.09,6.74,8.83t19.33,7.52a89.36,89.36,0,0,1,15.46,6.18,61,61,0,0,1,12.82,8.73,38.55,38.55,0,0,1,8.72,11.27A30.94,30.94,0,0,1,686.58,147.59Z"/><path class="cls-2" d="M808.14,33.36h0a16.57,16.57,0,0,1-16.57-16.57h0A16.57,16.57,0,0,1,808.14.22h0a16.57,16.57,0,0,1,16.57,16.57h0A16.57,16.57,0,0,1,808.14,33.36Zm16.13,150H792V55.46h32.26Z"/><path class="cls-1" d="M359.27,71.32q0-29.61,20.85-50.47T430.59,0V30.56a40.81,40.81,0,0,0-39.48,30.57h39.48V91.69H389.84v91.69H359.27Z"/><path class="cls-2" d="M734.05,71.32v40.75a40.77,40.77,0,0,0,40.75,40.75v30.56q-29.61,0-50.46-20.85t-20.85-50.46V0h30.56V40.75H774.8V71.32Z"/></g></g></svg>